<svg xmlns="http://www.w3.org/2000/svg" viewBox="0 0 132.29166 26.458334" height="100" width="500"><path style="line-height:1.25;-inkscape-font-specification:'Russo One'" d="M32.048 16.895h3.969q1.058 0 1.058-1.058v-4.895q0-.397-.264-.662-.265-.264-.662-.264h-.926q-.503 0-1.058.08-.556.079-1.032.184-.556.106-1.085.265zm0 3.572v4.498h-4.63V6.444h4.1l.265 1.323q.688-.45 1.482-.794.688-.291 1.535-.53.846-.264 1.746-.264h1.19q1.8 0 2.885 1.085 1.084 1.085 1.084 2.884v6.085q0 1.985-1.137 3.123-1.112 1.11-3.096 1.11zM49.93 6.973v13.494H45.3v-9.922h-1.984V6.973zM45.3 1.681h4.63v3.705H45.3zM61.977 10.677q0-.397-.265-.661-.264-.265-.661-.265h-.662q-.661 0-1.217.053-.555.027-1.005.08-.503.079-.953.132v6.879h3.705q1.058 0 1.058-1.058zm4.63 5.556q0 1.985-1.138 3.123-1.11 1.11-3.095 1.11h-9.79V1.947h4.63v4.762q.768-.158 1.561-.264.688-.106 1.456-.185.793-.08 1.481-.08h.926q1.8 0 2.884 1.085 1.085 1.085 1.085 2.884zM79.152 20.467l-.264-1.323q-.688.45-1.482.794-.688.29-1.535.529-.846.264-1.746.264h-1.19q-1.8 0-2.885-1.084-1.084-1.085-1.084-2.884V6.443h4.63v9.526q0 .397.264.661.265.265.662.265h.926q.503 0 1.058-.08.556-.079 1.032-.185.556-.105 1.085-.264V6.444h4.63v14.023zM89.752 10.81q0 .396.265.661.264.265.661.265h4.763q1.799 0 2.883 1.084 1.085 1.085 1.085 2.884v1.059q0 1.799-1.085 2.884-1.084 1.084-2.883 1.084-1.694 0-3.467-.079-1.772-.08-3.254-.185-1.72-.106-3.334-.265v-3.44l2.884.212q1.27.08 2.752.133 1.482.053 2.831.053.397 0 .661-.265.265-.265.265-.661v-.927h-5.688q-1.8 0-2.884-1.084-1.085-1.085-1.085-2.884v-.926q0-1.8 1.085-2.884 1.084-1.085 2.884-1.085h8.995v3.44h-7.408q-.397 0-.661.264-.265.265-.265.662zM100.734 16.498h4.763v3.969h-4.763zM113.44 6.973v13.494h-4.63v-9.922h-1.984V6.973zm-4.63-5.292h4.63v3.705h-4.63zM130.382 16.498q0 1.984-1.138 3.122-1.11 1.111-3.095 1.111h-6.086q-1.984 0-3.122-1.11-1.111-1.139-1.111-3.123v-6.085q0-1.985 1.111-3.096 1.138-1.138 3.122-1.138h6.086q1.984 0 3.095 1.138 1.138 1.111 1.138 3.096zm-4.63-5.688q0-1.059-1.058-1.059h-3.175q-1.059 0-1.059 1.059V16.1q0 1.059 1.059 1.059h3.175q1.058 0 1.058-1.059z" font-weight="400" font-family="Russo One" letter-spacing="0" word-spacing="0" fill="#fff"/><path d="M25.814 13.323a11.221 10.808 0 0 1-11.22 10.808A11.221 10.808 0 0 1 3.371 13.323 11.221 10.808 0 0 1 14.593 2.515a11.221 10.808 0 0 1 11.221 10.808z" fill="#d40000"/><g style="line-height:1.25;-inkscape-font-specification:'Russo One'"><path d="M21.87 16.366q0 1.984-1.138 3.122-1.112 1.111-3.096 1.111h-6.085q-1.985 0-3.122-1.111-1.112-1.138-1.112-3.122V10.28q0-1.984 1.112-3.095 1.137-1.138 3.122-1.138h6.085q1.984 0 3.096 1.138 1.137 1.111 1.137 3.095zm-4.63-5.689q0-1.058-1.06-1.058h-3.174q-1.059 0-1.059 1.058v5.292q0 1.058 1.059 1.058h3.175q1.058 0 1.058-1.058z" style="-inkscape-font-specification:'Russo One'" font-weight="400" font-size="10.583" font-family="Russo One" letter-spacing="0" word-spacing="0" fill="#fff" stroke-width=".265"/></g></svg>