<svg version="1" xmlns="http://www.w3.org/2000/svg" width="933.333" height="933.333" viewBox="0 0 700.000000 700.000000"><path d="M325 14.6c-69.2 6.2-131.5 28.7-184.3 66.7-75.8 54.4-124 135-137.3 229.7-2.5 17.6-2.5 60.4 0 78 4.6 33 12.3 61 24.7 89.9 47.8 111.4 152.1 187.8 279.4 204.8 18.3 2.4 66.7 2.4 85 0 127.3-17 231.6-93.4 279.4-204.8C684.3 450 692 422 696.6 389c2.5-17.6 2.5-60.4 0-78-5.8-41.2-17.2-77.4-35.4-112.4C609.5 99.3 509.8 31.6 393 16.4c-11.9-1.5-57.4-2.7-68-1.8zm152 111.7c27.1 5.8 45.2 15 62.8 32.1 18 17.5 28.3 37.4 33.9 65.1 1.7 8.4 1.8 17.1 1.8 126 0 129.7.2 124.6-6.7 145.8-11.6 36-38.6 62.9-73.8 73.7-22.2 6.8-15.1 6.5-145 6.5H232.5l-11.3-2.3c-26.2-5.3-46.8-15.7-62.7-31.7-16-15.9-26.4-36.5-31.7-62.7l-2.3-11.3V350c0-108.9.1-118.2 1.8-126.5 5.6-28.3 16.9-50.2 34.1-66.3 19.8-18.5 42.9-28.5 75.1-32.6 1.7-.2 54.8-.3 118-.2 106.5.1 115.6.3 123.5 1.9z"/><path d="M286.5 237.1c-7 2.4-12.8 7.4-15.9 13.9l-2.1 4.5v189l2.1 4.5c3.2 6.6 8.8 11.5 16.1 13.9 6 2 8.2 2.1 63.3 2.1 55.1 0 57.3-.1 63.3-2.1 7.3-2.4 12.9-7.3 16.1-13.9l2.1-4.5v-189l-2.1-4.5c-3.2-6.6-8.8-11.5-16.1-13.9-6-2-8.2-2.1-63.5-2.1-55 .1-57.5.1-63.3 2.1z"/></svg>